<?xml version="1.0" encoding="utf-8"?>
<!-- Generator: Adobe Illustrator 15.0.2, SVG Export Plug-In . SVG Version: 6.00 Build 0)  -->
<!DOCTYPE svg PUBLIC "-//W3C//DTD SVG 1.1//EN" "http://www.w3.org/Graphics/SVG/1.1/DTD/svg11.dtd">
<svg version="1.1" id="Layer_1" xmlns="http://www.w3.org/2000/svg" xmlns:xlink="http://www.w3.org/1999/xlink" x="0px" y="0px"
	 width="1284.067px" height="354.237px" viewBox="0 0 1284.067 354.237" enable-background="new 0 0 1284.067 354.237"
	 xml:space="preserve">
<g>
	<g>
		<path fill="#231F20" d="M410.391,80.503c0-9.699-5.557-18.744-13.813-22.473c-4.264-1.826-11.757-2.981-23.118-2.981
			c-9.953,0-25.462,0.787-32.289,0.787c-4.789,0-12.027-0.534-16.029-0.534c-0.394,0.646-0.658,1.549-0.658,2.059
			c0,0.535,0,1.947,0.393,2.59c2.453,0.789,6.452,1.416,9.049,2.086c2.188,1.918,2.713,3.607,3.48,7.359
			c0.385,4.512,0.654,10.201,0.654,20.02c0,27.26-0.133,41.588-0.516,44.686c-0.521,3.895-3.1,7.899-7.367,9.168
			c-1.947,0.393-4.793,1.043-7.484,1.301c-0.129,0.642-0.266,1.543-0.266,2.703c0,1.045,0.137,1.18,0.375,1.83
			c4.135,0,16.281-0.531,20.938-0.531c11.502,0,23.26,0.531,28.025,0.531h3.24c0.393-0.531,0.393-1.435,0.393-2.062
			c0-0.784,0-1.829-0.264-2.336c-3.881-0.508-9.688-1.295-12.139-4.139c-1.297-1.531-2.594-3.754-2.594-7.621l-0.395-28.416
			c7.761,0.506,16.031,0.76,20.555,0.76c5.932,0,10.967-1.018,14.971-2.312C404.711,99.507,410.391,90.433,410.391,80.503
			 M387.277,79.972c0,6.598-2.34,12.405-6.58,16.159c-2.723,2.192-6.986,3.489-13.453,3.489c-2.7,0-4.789-0.113-5.547-0.252
			c-1.033-0.141-1.691-0.26-1.691-0.928l0.137-37.842c1.555-0.117,3.748-0.648,7.504-0.648c8.783,0,14.213,2.201,16.789,7.641
			C386.227,71.058,387.277,75.462,387.277,79.972 M527.567,146.897c0-0.642-0.257-2.193-0.649-2.701
			c-1.285,0-6.572-0.254-8.518-1.69c-0.65-0.767-1.674-2.315-2.195-3.243c-1.695-5.923-3.609-9.926-5.561-14.834
			c-2.719-6.457-6.453-12.545-9.555-15.391c-1.17-1.014-5.174-2.704-9.697-4.258c-2.061-0.762-3.738-1.412-5.283-2.059
			c1.93-0.393,2.834-0.533,5.283-0.761c9.568-1.187,11.753-2.853,14.208-4.793c5.177-3.89,8.009-9.812,8.009-16.804
			c0-10.463-6.707-20.524-16.139-23.514c-3.117-0.902-8.646-1.414-15.496-1.414c-9.701,0-23.26,0.904-29.717,0.904
			c-1.946,0-13.191-0.251-17.707-0.251c-1.941,0-6.85-0.254-7.613-0.254c-0.396,0.903-0.645,1.917-0.645,2.452
			c0,0.506,0.125,1.805,0.248,2.311c2.201,0.258,6.205,0.768,8.275,1.16c3.094,2.336,4.135,4.143,5.42,6.986
			c0.662,4.146,0.775,14.723,0.775,32.934c0,13.195,0.133,28.422-0.506,33.355c-0.385,3.213-1.555,7.072-5.307,8.627
			c-1.668,0.281-4.775,0.785-7.361,0.908c-0.393,0.642-0.648,1.941-0.648,2.592c0,0.389,0.256,1.41,0.512,2.055
			c1.828,0,21.596-0.367,25.709-0.367c8.266,0,15.258,0.367,22.619,0.367c0.252-0.51,0.504-1.412,0.504-1.943
			c0-0.879-0.252-2.174-0.504-2.703c-2.6-0.258-5.812-1.025-7.238-1.301c-3.227-1.529-5.561-4.627-5.561-9.168l-0.123-29.83
			c1.022-0.138,2.316-0.138,3.354-0.138c1.673,0,3.619,0.28,6.846,2.062c4.779,2.732,7.115,4.674,10.217,9.443
			c4.131,6.452,6.854,18.328,8.139,27.771c0.379,2.703,1.408,5.043,3.871,5.297c1.033,0.143,7.883,0.396,12.791,0.396h18.479
			C527.311,148.571,527.567,147.55,527.567,146.897 M490.113,79.345c0,8.012-5.428,17.174-11.754,18.727
			c-2.59,0.645-5.83,1.037-10.596,1.037c-1.303,0-3.24,0-4.795-0.274l-0.123-10.974V64.095c0-1.548,0.385-2.453,0.773-2.845
			c0.383-0.394,2.723-0.769,5.438-0.769c10.071,0,14.467,0.885,18.078,6.969C489.195,70.948,490.113,74.95,490.113,79.345
			 M593.707,146.763c0-0.65-0.137-2.059-0.379-2.566c-1.947-0.143-7.234-0.652-9.561-1.156c-2.07-2.475-3.51-5.297-4.4-9.953
			c-0.123-6.201-0.264-18.997-0.264-31.01V70.3c0-3.496,1.426-6.205,2.338-6.992c2.459-2.312,7.363-2.826,11.504-3.357
			c0.26-0.508,0.383-1.92,0.383-2.448c0-0.763-0.383-1.808-0.645-2.065h-3.756c-5.424,0-18.088,0.653-22.482,0.653
			c-2.705,0-15.363-0.396-21.049-0.506h-2.833c-0.394,0.506-0.649,1.009-0.649,2.169c0,0.535,0.119,1.831,0.256,2.458
			c6.344,0.528,9.168,1.155,10.082,1.825c1.545,1.156,3.738,4.004,4.268,10.973c0.113,2.453,0.238,7.748,0.365,19.648
			c0.146,6.451,0.266,15.479,0.266,22.98c0,3.746-0.266,12.146-0.393,16.662c-0.238,3.104-0.9,6.061-1.793,7.749
			c-1.553,1.302-3.107,3.612-12.543,4.263c-0.252,0.51-0.389,2.199-0.389,2.729c0,1.02,0.266,1.531,0.266,2.176h2.197
			c5.178,0,18.082-0.645,24.801-0.645c1.941,0,15.367,0.394,19.631,0.394h4.277C593.57,148.317,593.707,147.272,593.707,146.763
			 M721.484,57.245c0-0.506-0.133-1.409-0.393-1.809h-2.977c-6.451,0-10.586,0.258-22.213,0.258c-4.002,0-9.965-0.258-11.363-0.258
			h-3.369c-0.393,0.258-0.525,1.691-0.525,2.201c0,0.65,0.133,1.67,0.664,2.202c2.061,0.642,9.924,1.526,13.307,3.75
			c2.312,2.704,3.35,8.119,3.736,13.163c0.129,1.924,0.266,3.869,0.266,9.167v27.007c0,3.104-0.137,4.117-0.266,5.555
			c-2.184-2.451-5.301-7.104-10.473-12.916l-43.137-47.812c-0.395-0.508-1.156-1.16-1.947-1.663c-1.023,0-2.842-0.142-3.861-0.142
			c-8.285,0-23.26-0.364-25.457-0.364c-0.256,0.506-0.508,1.267-0.508,1.776c0,0.277,0.252,2.082,0.369,2.479
			c1.943,0.507,6.215,1.155,9.689,4.905c2.088,2.311,5.697,5.555,6.854,8.146c0.393,0.905,0.521,2.311,0.521,4.119
			c0,6.707-0.375,16.15-0.375,25.178v26.246c0,4.26-0.402,7.614-0.787,9.812c-2.713,2.846-6.844,4.908-13.566,6.574
			c-0.252,0.67-0.512,1.689-0.512,2.34c0,0.389,0.119,1.688,0.385,1.804H618c2.578,0,8.527-0.394,12.402-0.394
			c5.684,0,9.551,0.394,14.852,0.394h7.75c0.52-0.116,0.648-1.692,0.648-2.202c0-0.507-0.129-1.552-0.393-2.059
			c-4.516-1.16-11.105-2.198-15.496-8.01c-0.891-1.941-1.678-11.498-1.678-16.037c0-4.117-0.137-9.789-0.137-17.424
			c0-10.211,0.137-19.117,0.26-23.637c0.777,0.906,1.682,2.062,2.332,2.83l59.688,67.064c0.645,0.629,2.957,0.768,3.611,0.768
			c0.648,0,1.037,0,1.549-0.253c0.256-0.649,1.16-2.733,1.16-5.81c0-3.75-0.133-7.639-0.133-9.561V80.757
			c0-16.152,7.627-20.664,16.537-21.061C721.352,59.054,721.484,57.896,721.484,57.245 M821.998,131.003
			c-0.393-1.158-1.436-3.1-4.396-3.1c-0.27,0-0.662,0.14-0.904,0.14c-7.764,10.991-16.295,15.112-25.982,15.112
			c-13.436,0-22.986-9.055-26.088-17.061c-1.691-4.258-4.004-13.561-4.004-23.514c0-9.42,1.422-17.055,3.875-22.609
			c5.68-14.975,13.941-19.625,24.031-19.625c8.4,0,15.369,4.791,20.664,11.619c2.203,2.984,4.523,8.791,6.58,15.641
			c0.535,0.119,1.691,0.371,2.844,0.371c0.775,0,2.59-0.621,3.107-1.156c-0.119-1.412-1.418-11.359-1.418-14.463
			c0-3.871,1.033-10.207,1.033-12.662c-0.777-0.787-3.354-1.291-5.031-1.408c-1.947,1.408-2.592,3.078-4.4,5.302
			c-7.234-5.185-13.955-9.19-28.674-9.19c-13.568,0-24.307,4.654-32.441,12.797c-8.906,8.77-13.812,20.922-13.812,36.431
			c0,16.521,6.977,30.11,18.219,38.626c7.115,5.162,17.574,8.652,30.09,8.652c15.762,0,27.268-5.946,33.072-13.812
			C820.682,133.966,820.947,133.204,821.998,131.003 M931.275,126.487c0-1.805,0-2.592-0.131-3.746
			c-0.654-0.389-0.906-0.389-1.943-0.389c-0.904,0-1.924,0-2.852,0.252c-4.373,9.947-10.711,17.707-14.201,19.762
			c-1.93,1.178-4.898,1.436-9.688,1.436h-10.584c-4.131,0-7.375-0.393-8.527-0.646c-1.941-0.396-4.008-3.496-4.898-5.559
			c-0.918-2.193-1.439-2.193-1.439-8.141v-28.282h4.789c1.283,0,4.4,0.253,7.865,1.802c3.244,1.438,4.541,3.358,5.826,5.438
			c1.17,1.781,1.932,8.912,2.184,10.721c0.662,0.368,2.34,0.504,3.377,0.504c1.023,0,1.672-0.136,2.568-0.646
			c0-3.496-0.777-12.914-0.777-18.098c0-6.455,0.904-15.367,1.289-19.996c-0.512-0.275-1.289-0.533-2.568-0.533
			c-0.896,0-2.592,0-3.359,0.393c-0.387,1.809-1.812,7.221-2.078,7.617c-1.92,3.238-5.301,5.693-8.773,6.734
			c-2.322,0.623-5.695,1.022-7.494,1.022h-2.711V84.116c0-12.407,0.252-16.414,0.385-18.75c0.123-1.525,0.379-3.215,0.516-4.371
			c1.16-0.139,1.811-0.256,7.76-0.256c7.477,0,10.977,0.117,12.137,0.117c3.619,0.277,6.328,1.045,8.271,2.592
			c4.908,3.748,8.654,9.674,12.393,16.014c0.777,0.256,2.074,0.256,2.723,0.256c0.777,0,0.9-0.256,1.938-0.762
			c0-7.898-0.529-18.1-0.785-21.318c-0.137-1.297-0.375-1.689-2.957-1.689c-1.047,0-5.953-0.254-11.113-0.254
			c-7.361,0-10.346,0.142-21.592,0.142c-6.059,0-18.594,0.112-23.895,0.112c-7.744,0-14.344-0.254-17.697-0.254h-4.396
			c-0.393,0.51-0.631,1.551-0.631,2.059c0,0.652,0.238,2.087,0.631,2.594c1.553,0.51,7.631,0.393,9.441,1.412
			c1.809,1.549,3.473,2.195,4.643,8.398c0.266,2.734,0.396,10.207,0.396,16.154v26.615c0,5.42-0.131,13.309-0.27,16.529
			c-0.25,5.044-2.057,11.109-2.818,12.283c-1.184,0.902-6.484,1.67-11.648,1.922c-0.375,0.785-0.645,2.084-0.645,2.85
			c0,0.762,0.27,1.689,0.645,2.338h4.264c4.145,0,19.379-0.396,22.871-0.396c3.234,0,9.436,0.254,16.926,0.254
			c4.131,0,16.281,0.785,42.369,0.785c1.033,0,2.193,0.117,3.482-0.275c0.402-0.645,0.402-0.898,0.521-2.055
			C931.275,144.569,931.275,136.95,931.275,126.487 M1042.621,84.506V58.147c0-1.943-0.76-2.453-2.707-2.453
			c-3.875,0-24.277,0.51-44.941,0.51c-16.031,0-29.332-0.256-36.57-0.256h-9.57c-1.662,0-2.184,0.393-2.184,2.199v24.668
			c0.521,0.399,1.416,0.535,2.07,0.535c0.508,0,2.326,0,2.838-0.281c5.812-11.732,11.246-18.072,18.096-21.567
			c3.865-0.368,11.479-0.507,13.549-0.507c0.133,1.41,0.266,5.947,0.385,11.363c0.141,9.301,0.141,13.307,0.141,35.269
			c0,19.004-0.141,27.519-0.393,29.577c-0.508,3.611,0.133,6.34-15.373,6.992c-0.393,0.902-0.393,1.916-0.393,2.965
			c0,0.507,0,1.545,0.146,2.055h5.018c4.789,0,16.029-0.51,20.686-0.51c3.744,0,15.766,0.396,23.631,0.396h3.615
			c0.393-0.65,0.393-2.062,0.393-2.709c0-0.785-0.123-1.689-0.508-2.34c-1.439,0-9.705,0.258-13.311-2.451
			c-0.395-1.412-1.17-5.162-1.17-9.695c-0.125-13.936-0.266-19.237-0.266-28.539c0-12.012,0.141-20.153,0.141-42.512
			c1.807,0,5.951-0.117,9.812,0c8.02,2.197,11.895,5.184,15.377,9.813c2.188,2.983,4.523,8.007,6.84,14.093
			c0.787,0.254,1.436,0.254,2.199,0.254C1040.691,85.017,1042.373,84.763,1042.621,84.506 M1156.18,100.774
			c0-18.07-8.01-31.889-22.998-40.176c-8.006-4.395-16.012-6.592-24.543-6.592c-18.85,0-35.904,11.249-43.541,24.045
			c-4.912,8.006-7.48,16.775-7.48,26.081c0,14.858,7.238,29.464,18.471,37.867c8.531,6.2,18.217,9.274,29.463,9.274
			c6.85,0,13.307-1.269,19.625-3.725c7.117-2.729,13.182-6.984,17.959-12.287C1151.537,126.095,1156.18,114.34,1156.18,100.774
			 M1132.803,98.323c0,19.508-5.422,36.711-12.789,42.77c-3.742,3.104-8.398,4.652-13.697,4.652c-7.221,0-13.564-2.848-17.172-8.652
			c-4.908-7.502-7.623-21.455-7.623-33.586c0-17.98,4.633-32.051,12.906-38.902c4.404-3.609,8.914-5.021,13.438-5.021
			c6.988,0,13.703,3.354,17.578,8.903C1130.35,75.202,1132.803,84.905,1132.803,98.323 M1280.842,57.245
			c0-0.506-0.115-1.409-0.383-1.809h-2.963c-6.467,0-10.588,0.258-22.232,0.258c-4,0-9.953-0.258-11.359-0.258h-3.355
			c-0.393,0.258-0.52,1.691-0.52,2.201c0,0.65,0.127,1.67,0.633,2.202c2.086,0.642,9.957,1.526,13.311,3.75
			c2.336,2.704,3.365,8.119,3.764,13.163c0.111,1.924,0.238,3.869,0.238,9.167v27.007c0,3.104-0.127,4.117-0.238,5.555
			c-2.219-2.451-5.309-7.104-10.479-12.916l-43.146-47.812c-0.383-0.508-1.16-1.16-1.938-1.663c-1.039,0-2.844-0.142-3.861-0.142
			c-8.287,0-23.264-0.364-25.459-0.364c-0.254,0.506-0.52,1.267-0.52,1.776c0,0.277,0.266,2.082,0.385,2.479
			c1.941,0.507,6.197,1.155,9.693,4.905c2.059,2.311,5.68,5.555,6.842,8.146c0.389,0.905,0.52,2.311,0.52,4.119
			c0,6.707-0.398,16.15-0.398,25.178v26.246c0,4.26-0.369,7.614-0.762,9.812c-2.709,2.846-6.852,4.908-13.564,6.574
			c-0.264,0.67-0.508,1.689-0.508,2.34c0,0.389,0.119,1.688,0.371,1.804h2.451c2.594,0,8.541-0.394,12.41-0.394
			c5.689,0,9.557,0.394,14.857,0.394h7.754c0.51-0.116,0.645-1.692,0.645-2.202c0-0.507-0.135-1.552-0.393-2.059
			c-4.516-1.16-11.109-2.198-15.508-8.01c-0.902-1.941-1.666-11.498-1.666-16.037c0-4.117-0.139-9.789-0.139-17.424
			c0-10.211,0.139-19.117,0.266-23.637c0.775,0.906,1.682,2.062,2.324,2.83l59.689,67.064c0.637,0.629,2.963,0.768,3.609,0.768
			c0.637,0,1.033,0,1.553-0.253c0.254-0.649,1.156-2.733,1.156-5.81c0-3.75-0.127-7.639-0.127-9.561V80.757
			c0-16.152,7.627-20.664,16.539-21.061C1280.727,59.054,1280.842,57.896,1280.842,57.245"/>
		<path fill="none" d="M276.527,52.231c-11.086,3.379-22.865,5.209-35.107,5.209c-43.166,0-80.869-22.682-101.209-56.44
			C119.85,34.759,82.145,57.44,38.984,57.44c-12.225,0-24-1.816-35.062-5.184c-2.893,32.955-0.787,65.477,5.763,96.752h260.899
			C277.41,116.392,279.256,83.87,276.527,52.231"/>
		<path fill="#F58025" d="M75.783,289.454c18.467,23.35,40.059,44.445,64.363,62.615c24.041-17.928,45.746-38.883,64.479-62.457
			l-64.528-62.74L75.783,289.454"/>
		<path fill="#F58025" d="M45.693,244.595l94.403-90.729l94.588,90.979c15.714-27.949,27.632-58.518,34.972-91.223
			c0.323-1.536,0.598-3.075,0.928-4.613H9.685C16.744,182.644,28.986,214.837,45.693,244.595"/>
		<path fill="#F58025" d="M45.693,244.595c8.797,15.674,18.863,30.68,30.09,44.859l64.313-62.582l64.528,62.74
			c11.127-14.021,21.193-28.988,30.06-44.768l-94.588-90.979L45.693,244.595"/>
		<path fill="#231F20" d="M45.693,244.595c8.797,15.674,18.863,30.68,30.09,44.859l64.313-62.582l64.528,62.74
			c11.127-14.021,21.193-28.988,30.06-44.768l-94.588-90.979L45.693,244.595"/>
		<path fill="#231F20" d="M276.527,52.231c-11.086,3.379-22.865,5.209-35.107,5.209c-43.166,0-80.869-22.682-101.209-56.44
			C119.85,34.759,82.145,57.44,38.984,57.44c-12.225,0-24-1.816-35.062-5.184c-2.893,32.955-0.787,65.477,5.763,96.752h260.899
			C277.41,116.392,279.256,83.87,276.527,52.231"/>
		<path fill="#FFFFFF" d="M204.529,88.763V77.677h-6.781v-7.818l-7.105-1.992h-0.508v-6.639c0,0-2.453,2.938-13.699,2.938
			c-10.652,0-16.898-3.449-25.367-3.449c-8.146,0-10.646,4.65-10.646,4.65v2.684h-0.275v-2.684c0,0-2.549-4.65-10.646-4.65
			c-8.473,0-14.719,3.473-25.365,3.473c-11.256,0-13.197-2.938-13.197-2.938v6.987h-0.463l-7.703,1.621v7.818h-6.801v11.086h6.801
			v17.941h-6.801V117.8h6.801v13.809c0,0,11.411,1.777,21.961,1.777c12.475,0,19.672-1.802,27.779-1.964v3.491
			c0,0,3.258,1.621,7.607,1.621c4.4,0,7.893-1.621,7.893-1.621v-3.491c8.078,0.162,15.271,1.964,27.814,1.964
			c10.512,0,21.922-1.777,21.922-1.777V117.8h6.781v-11.096h-6.781V88.763H204.529"/>
		<path fill="#FFFFFF" d="M132.283,131.438c0.018-0.008,0.229-0.017,0.229-0.017S132.311,131.431,132.283,131.438 M82.771,69.858
			v61.75l21.961,1.777l17.543-1.146c0,0,9.354-0.75,10.008-0.801c-0.426,0.027-10.008,0.801-10.008,0.801l-17.543,1.146
			l-21.961-1.777V69.858l7.703-1.621L82.771,69.858z"/>
		<path fill="#231F20" d="M108.805,73.733c-0.924,0.07-1.527,0.56-1.801,1.18l-3.803,8.461c0,0-0.182,0.126-0.291,0.126
			c-0.119,0-0.258-0.126-0.349-0.394c-0.091-0.299-0.558-1.479-1.554-3.781l-1.225-2.766c-0.438-1.021-0.785-1.688-0.904-1.9
			c-0.439-0.762-0.996-0.822-1.596-0.926c-0.068-0.094-0.068-0.174-0.068-0.258c0-0.08,0-0.135,0.041-0.238h0.627
			c0.723,0,1.32,0.037,1.855,0.037c0.621,0,1.662-0.059,2.362-0.059h0.411c0.068,0.021,0.092,0.156,0.092,0.219
			c0,0.041,0,0.205-0.042,0.281c-0.461,0.041-1.513,0.018-1.513,0.665c0,0.144,0.027,0.397,0.096,0.569l2.5,5.924l2.084-4.922
			c0.256-0.549,0.283-1.039,0.283-1.293c0-0.555-0.396-0.799-1.439-0.926c-0.027-0.07-0.068-0.164-0.068-0.228
			c0-0.095,0.041-0.231,0.068-0.29h0.303c0.457,0,0.928,0.059,1.964,0.059c0.183,0,0.905-0.037,1.247-0.037h0.719
			c0.049,0.08,0.096,0.135,0.096,0.222C108.9,73.528,108.854,73.674,108.805,73.733"/>
		<path fill="#231F20" d="M119.383,83.215c-3.029,0-4.674-0.084-5.09-0.084c-0.326,0-1.061-0.024-1.436-0.024
			c-0.416,0-1.389,0.07-2.453,0.07l-0.604-0.023c-0.041-0.084-0.041-0.141-0.041-0.221c0-0.078,0-0.197,0.018-0.291
			c0.809-0.055,1.389-0.195,1.525-0.322c0.166-0.195,0.279-0.621,0.334-1.529c0-0.463,0.02-0.969,0.02-1.488
			c0-0.768-0.02-1.688-0.02-2.816c0-0.773,0-1.233,0-1.559c-0.031-1.104-0.557-1.104-1.695-1.225
			c-0.021-0.109-0.045-0.196-0.045-0.268c0-0.062,0.023-0.219,0.092-0.254h0.557c0.371,0,1.361,0.018,3.264,0.018
			c1.735,0,3.422,0.039,3.793,0.039c0.232,0,0.904,0.01,1.045,0.01c0.229,0,0.32,0.027,0.32,0.229l0.137,2.276
			c-0.137,0.063-0.16,0.089-0.273,0.089c-0.092,0-0.164,0-0.233-0.025c-0.667-1.131-0.995-1.354-1.503-1.734
			c-0.184-0.143-0.467-0.221-0.883-0.258c-0.137,0-0.484-0.02-1.344-0.02c-0.689,0-1.037,0.02-1.133,0.033
			c-0.113,0-0.091-0.014-0.137,0.383c-0.019,0.242-0.045,0.693-0.045,2.014v1.295h0.346c0.439,0,0.883-0.047,1.135-0.115
			c0.393-0.104,0.809-0.395,1.018-0.719c0.098-0.115,0.184-0.658,0.229-0.832c0.074-0.047,0.188-0.069,0.33-0.069
			c0.096,0,0.182,0.022,0.25,0.079c-0.021,0.406-0.09,1.171-0.09,2.143c0,0.488,0.045,1.551,0.045,1.988
			c-0.092,0.07-0.137,0.087-0.279,0.087c-0.068,0-0.201-0.017-0.277-0.038c-0.088-0.857-0.229-1.438-0.951-1.736
			c-0.389-0.16-0.713-0.207-1.105-0.207c-0.206,0-0.467,0.024-0.676,0.047v2.611c0,0.604,0.054,0.973,0.145,1.184
			c0.064,0.174,0.297,0.521,0.6,0.557c0.137,0.02,0.389,0.066,0.924,0.066h1.434c0.37,0,0.904-0.047,1.092-0.16
			c0.348-0.232,1.271-1.227,1.596-2.143c0.141-0.056,0.211-0.056,0.307-0.056c0.09,0,0.178,0.024,0.291,0.069v2.648
			C119.912,83.177,119.752,83.215,119.383,83.215"/>
		<path fill="#231F20" d="M131.42,76.364c-0.068,0-0.166-0.027-0.275-0.037c-0.236-0.615-0.512-1.182-0.744-1.48
			c-0.416-0.51-0.805-0.85-1.855-0.973c-0.229-0.014-0.785-0.014-0.969-0.014l-0.027,4.406c0,0.699,0,1.518,0.027,3.035
			c0.023,1.17,0.529,1.17,1.736,1.318c0.072,0.13,0.096,0.209,0.096,0.289s-0.023,0.16-0.078,0.244h-0.437
			c-0.69,0-2.081-0.047-2.519-0.047c-0.303,0-1.828,0.07-2.551,0.07c-0.064-0.107-0.086-0.107-0.086-0.268
			c0-0.08,0.021-0.159,0.068-0.268c1.594-0.115,1.76-0.416,1.801-0.92c0.049-0.326,0.049-1.648,0.049-2.99v-3.654
			c0-0.455-0.027-0.914-0.09-1.217c-0.307,0-1.281,0-1.555,0.107c-0.809,0.299-1.389,0.982-2.01,2.195
			c-0.074,0.035-0.188,0.035-0.257,0.035c-0.091,0-0.187-0.035-0.233-0.107v-2.562c0-0.235,0.023-0.291,0.302-0.291
			c0.229,0,0.599,0.01,1.089,0.01c0.346,0,1.805,0.027,3.633,0.027c2.408,0,4.193-0.059,4.656-0.059c0.229,0,0.388,0,0.479,0.077
			c0.023,0.048,0,0.235,0,0.37v2.57C131.629,76.327,131.517,76.364,131.42,76.364"/>
		<path fill="#231F20" d="M108.324,92.03c-0.096,0-0.16-0.024-0.306-0.039c-0.21-0.61-0.479-1.178-0.741-1.479
			c-0.393-0.507-0.805-0.848-1.852-0.973c-0.227-0.01-0.785-0.01-0.967-0.01l-0.023,4.408c0,0.692,0,1.518,0.023,3.031
			c0.021,1.17,0.558,1.17,1.754,1.316c0.074,0.132,0.074,0.211,0.074,0.295c0,0.08,0,0.158-0.051,0.238h-0.434
			c-0.723,0-2.107-0.041-2.527-0.041c-0.303,0-1.828,0.066-2.568,0.066c-0.047-0.105-0.074-0.105-0.074-0.264
			c0-0.084,0.027-0.163,0.052-0.271c1.599-0.111,1.759-0.412,1.827-0.926c0.023-0.32,0.023-1.639,0.023-2.982v-3.66
			c0-0.447,0-0.916-0.064-1.211c-0.307,0-1.303,0-1.582,0.104c-0.809,0.299-1.361,0.982-1.986,2.202
			c-0.092,0.03-0.211,0.03-0.275,0.03c-0.096,0-0.164-0.03-0.232-0.104v-2.568c0-0.233,0.045-0.289,0.297-0.289
			c0.26,0,0.604,0.015,1.092,0.015c0.371,0,1.824,0.017,3.66,0.017c2.381,0,4.186-0.056,4.625-0.056c0.256,0,0.416,0,0.484,0.08
			c0.051,0.052,0.023,0.233,0.023,0.375v2.562C108.512,91.991,108.416,92.03,108.324,92.03"/>
		<path fill="#231F20" d="M119.752,98.881c-3.006,0-4.674-0.084-5.066-0.084c-0.32,0-1.064-0.019-1.453-0.019
			c-0.398,0-1.389,0.066-2.436,0.066l-0.6-0.025c-0.049-0.08-0.072-0.135-0.072-0.215c0-0.084,0-0.197,0.051-0.295
			c0.809-0.051,1.383-0.197,1.502-0.318c0.188-0.194,0.275-0.627,0.32-1.53c0.027-0.464,0.051-0.97,0.051-1.491
			c0-0.764-0.023-1.691-0.023-2.812c0-0.776-0.027-1.242-0.027-1.564c-0.019-1.098-0.529-1.098-1.664-1.221
			c-0.041-0.107-0.067-0.2-0.067-0.266c0-0.066,0.046-0.226,0.114-0.264h0.535c0.387,0,1.361,0.027,3.262,0.027
			c1.76,0,3.424,0.035,3.814,0.035c0.211,0,0.906,0.015,1.02,0.015c0.262,0,0.348,0.017,0.348,0.228l0.115,2.271
			c-0.115,0.069-0.16,0.088-0.279,0.088c-0.068,0-0.133,0-0.229-0.019c-0.648-1.139-0.975-1.356-1.498-1.742
			c-0.188-0.135-0.443-0.215-0.859-0.25c-0.143,0-0.484-0.025-1.367-0.025c-0.672,0-1.041,0.025-1.115,0.039
			c-0.132,0-0.108-0.014-0.16,0.383c0,0.239-0.027,0.694-0.027,2.006v1.299h0.33c0.461,0,0.904-0.043,1.133-0.115
			c0.416-0.102,0.809-0.396,1.037-0.715c0.079-0.114,0.188-0.664,0.211-0.838c0.096-0.041,0.209-0.063,0.324-0.063
			c0.119,0,0.211,0.022,0.279,0.079c-0.023,0.406-0.11,1.171-0.11,2.139c0,0.491,0.063,1.553,0.063,1.992
			c-0.113,0.07-0.141,0.081-0.272,0.081c-0.097,0-0.212-0.011-0.308-0.032c-0.092-0.857-0.205-1.438-0.944-1.736
			c-0.399-0.166-0.719-0.211-1.089-0.211c-0.205,0-0.467,0.023-0.672,0.045v2.617c0,0.598,0.045,0.973,0.115,1.184
			c0.09,0.175,0.328,0.518,0.602,0.553c0.143,0.023,0.416,0.068,0.928,0.068h1.459c0.369,0,0.877-0.045,1.064-0.157
			c0.369-0.235,1.293-1.231,1.621-2.144c0.115-0.062,0.201-0.062,0.299-0.062c0.067,0,0.182,0.022,0.273,0.071v2.652
			C120.283,98.845,120.123,98.881,119.752,98.881"/>
		<path fill="#231F20" d="M126.791,99.101c-0.838,0-1.76-0.322-2.318-0.604c-0.09-0.047-0.273-0.079-0.365-0.079
			c-0.119,0-0.42,0.149-0.74,0.379c-0.232,0-0.516-0.112-0.58-0.3c0-0.211,0.188-0.834,0.188-1.227c0-0.234-0.072-1.351-0.096-1.619
			c0.096-0.141,0.279-0.209,0.443-0.209c0.064,0,0.113,0,0.154,0.014c0.211,0.406,0.631,1.486,0.928,1.928
			c0.627,0.729,1.549,1.057,2.221,1.057c0.74,0,1.299-0.154,1.627-0.488c0.457-0.438,0.553-0.729,0.553-1.211
			c0-0.358-0.072-0.664-0.279-0.901c-0.254-0.329-0.461-0.47-1.041-0.745c-0.438-0.211-1.988-0.589-2.545-0.889
			c-0.695-0.322-1.037-0.604-1.389-0.986c-0.416-0.535-0.576-1.25-0.576-1.818c0-1.603,1.27-2.799,3.076-2.799
			c0.67,0,1.594,0.059,2.385,0.68c0.165-0.176,0.369-0.377,0.575-0.561c0.302,0,0.508,0.159,0.53,0.262
			c-0.022,0.244-0.156,0.869-0.156,1.365c0,0.268,0.156,1.321,0.156,1.487c-0.115,0.041-0.229,0.134-0.393,0.134
			c-0.047,0-0.109-0.02-0.184-0.041c-0.273-0.492-0.529-1.302-0.832-1.742c-0.465-0.623-1.113-0.851-1.992-0.851
			c-0.99,0-1.799,0.62-1.799,1.478c0,0.834,0.666,1.227,1.225,1.483c0.41,0.159,0.922,0.36,1.502,0.534
			c0.745,0.25,1.293,0.447,1.596,0.611c1.156,0.586,1.641,1.441,1.641,2.635C130.305,97.918,128.641,99.101,126.791,99.101"/>
		<path fill="#231F20" d="M112.346,114.571c-3.025,0-4.676-0.08-5.09-0.08c-0.326,0-1.062-0.023-1.432-0.023
			c-0.416,0-1.389,0.064-2.459,0.064l-0.597-0.02c-0.046-0.08-0.046-0.139-0.046-0.219c0-0.083,0-0.201,0.018-0.291
			c0.809-0.057,1.395-0.195,1.531-0.326c0.164-0.195,0.273-0.623,0.329-1.525c0-0.465,0.019-0.975,0.019-1.492
			c0-0.764-0.019-1.691-0.019-2.809c0-0.781,0-1.24,0-1.566c-0.028-1.096-0.558-1.096-1.69-1.229
			c-0.023-0.102-0.051-0.195-0.051-0.266c0-0.057,0.027-0.215,0.092-0.252h0.557c0.37,0,1.367,0.023,3.264,0.023
			c1.74,0,3.426,0.031,3.797,0.031c0.229,0,0.9,0.016,1.037,0.016c0.238,0,0.324,0.024,0.324,0.232l0.143,2.266
			c-0.143,0.07-0.166,0.094-0.279,0.094c-0.092,0-0.156,0-0.234-0.023c-0.665-1.133-0.99-1.357-1.502-1.736
			c-0.184-0.139-0.467-0.219-0.878-0.252c-0.142,0-0.484-0.025-1.343-0.025c-0.691,0-1.043,0.025-1.135,0.035
			c-0.113,0-0.091-0.01-0.137,0.379c-0.027,0.242-0.049,0.693-0.049,2.016v1.297h0.346c0.439,0,0.883-0.047,1.134-0.117
			c0.394-0.107,0.81-0.395,1.019-0.721c0.096-0.111,0.188-0.656,0.229-0.826c0.078-0.049,0.188-0.072,0.33-0.072
			c0.091,0,0.188,0.023,0.25,0.086c-0.021,0.4-0.086,1.164-0.086,2.139c0,0.486,0.041,1.547,0.041,1.986
			c-0.092,0.072-0.137,0.08-0.273,0.08c-0.074,0-0.207-0.008-0.279-0.033c-0.092-0.855-0.232-1.436-0.951-1.734
			c-0.393-0.16-0.717-0.212-1.105-0.212c-0.211,0-0.467,0.024-0.676,0.052v2.616c0,0.599,0.045,0.968,0.141,1.175
			c0.068,0.174,0.297,0.518,0.6,0.557c0.141,0.023,0.396,0.068,0.932,0.068h1.426c0.375,0,0.904-0.045,1.093-0.162
			c0.343-0.23,1.271-1.227,1.595-2.138c0.146-0.058,0.209-0.058,0.301-0.058c0.096,0,0.188,0.023,0.302,0.066v2.652
			C112.88,114.532,112.715,114.571,112.346,114.571"/>
		<path fill="#231F20" d="M126.928,105.056c-1.016,0.039-1.896,0.59-1.896,2.211l-0.023,5.153c0,0.194,0.096,1.655,0.096,2.207
			c-0.164,0.101-0.324,0.167-0.416,0.167c-0.055,0-0.141-0.066-0.255-0.167l-7.062-7.589l0.064,1.549l0.033,2.801
			c0,0.219,0.041,0.745,0.086,1.133c0.047,0.627,0.229,0.836,0.512,1.069c0.344,0.298,0.924,0.392,1.34,0.437
			c0.049,0.08,0.068,0.16,0.068,0.236c0,0.031-0.02,0.157-0.092,0.25h-0.764c-0.648,0-1.15-0.021-1.828-0.021
			c-0.438,0-1.064,0.041-1.508,0.041h-0.319c-0.022-0.064-0.022-0.176-0.022-0.229c0-0.041,0-0.134,0.045-0.252
			c0.508-0.049,1.293-0.281,1.6-0.695c0.119-0.256,0.16-0.719,0.16-1.205v-3.586c0-0.58-0.023-0.869-0.041-1.433
			c-0.027-0.465-0.119-0.813-0.352-1.089c-0.02-0.061-0.262-0.305-0.49-0.523c-0.232-0.197-0.785-0.357-1.133-0.496
			c-0.045-0.094-0.072-0.205-0.072-0.231c0-0.06,0.027-0.185,0.072-0.255h0.256c0.207,0,1.293,0.055,2.135,0.055h0.48
			c0.096,0.04,0.25,0.141,0.301,0.2l5.232,5.716c0.396,0.439,0.9,1.016,1.184,1.389v-4.123c0-0.549-0.033-0.943-0.056-1.146
			c-0.04-0.424-0.132-0.785-0.296-1.076c-0.16-0.25-1.135-0.389-1.646-0.496c-0.045-0.102-0.045-0.215-0.045-0.299
			c0-0.055,0-0.124,0.027-0.219h0.298c0.487,0,1.274,0.07,1.759,0.07c1.207,0,1.576-0.033,2.176-0.033h0.393
			c0.045,0.08,0.045,0.182,0.045,0.244C126.973,104.86,126.973,104.976,126.928,105.056"/>
		<path fill="#231F20" d="M159.91,73.702c-0.996,0.031-1.9,0.591-1.9,2.207v5.148c0,0.199,0.068,1.657,0.068,2.213
			c-0.137,0.104-0.32,0.158-0.393,0.158c-0.073,0-0.137-0.055-0.274-0.158l-7.06-7.59l0.096,1.549l0.023,2.803
			c0,0.215,0.04,0.734,0.062,1.131c0.07,0.625,0.256,0.83,0.512,1.062c0.371,0.301,0.951,0.395,1.344,0.442
			c0.047,0.082,0.064,0.161,0.064,0.228c0,0.037-0.018,0.164-0.064,0.258h-0.785c-0.631,0-1.133-0.022-1.832-0.022
			c-0.439,0-1.043,0.046-1.48,0.046h-0.324c-0.023-0.07-0.047-0.188-0.047-0.23c0-0.051,0-0.139,0.068-0.256
			c0.489-0.049,1.275-0.277,1.572-0.697c0.143-0.254,0.164-0.713,0.164-1.203v-3.584c0-0.579,0-0.869-0.021-1.436
			c-0.019-0.461-0.143-0.81-0.348-1.086c-0.047-0.062-0.255-0.304-0.512-0.521c-0.211-0.195-0.787-0.359-1.129-0.5
			c-0.023-0.094-0.051-0.204-0.051-0.229c0-0.062,0.027-0.188,0.051-0.254h0.273c0.184,0,1.275,0.057,2.107,0.057h0.484
			c0.092,0.037,0.26,0.135,0.324,0.197l5.232,5.715c0.393,0.443,0.9,1.019,1.178,1.389v-4.116c0-0.56-0.045-0.952-0.068-1.147
			c-0.021-0.428-0.137-0.787-0.301-1.076c-0.16-0.26-1.134-0.395-1.618-0.496c-0.046-0.107-0.073-0.227-0.073-0.305
			c0-0.057,0-0.123,0.051-0.217h0.297c0.488,0,1.279,0.066,1.76,0.066c1.184,0,1.572-0.031,2.176-0.031h0.373
			c0.041,0.077,0.074,0.182,0.074,0.243C159.984,73.506,159.951,73.622,159.91,73.702"/>
		<path fill="#231F20" d="M168.68,74.646c-0.484-0.654-1.088-1.051-1.992-1.051c-0.827,0-1.361,0.373-1.85,1.051
			c-0.604,0.768-0.924,1.981-0.924,3.529c0,1.529,0.32,2.738,0.877,3.51c0.512,0.729,1.088,1.1,1.965,1.1
			c1.07,0,1.691-0.5,2.177-1.366c0.442-0.763,0.651-1.825,0.651-3.206C169.584,76.56,169.256,75.403,168.68,74.646 M170.303,81.95
			c-0.969,0.959-2.312,1.504-3.564,1.504c-1.184,0-2.551-0.508-3.5-1.438c-1.037-0.992-1.5-2.336-1.5-3.805
			c0-1.424,0.463-2.764,1.5-3.781c1.115-1.059,2.316-1.496,3.518-1.496c0.883,0,1.691,0.219,2.643,0.739
			c1.549,0.985,2.448,2.628,2.448,4.435C171.847,79.517,171.293,80.931,170.303,81.95z"/>
		<path fill="#231F20" d="M184.51,73.733c-0.9,0.07-1.5,0.56-1.783,1.18l-3.792,8.461c0,0-0.188,0.126-0.302,0.126
			c-0.114,0-0.279-0.126-0.352-0.394c-0.088-0.299-0.549-1.479-1.568-3.781l-1.205-2.766c-0.439-1.021-0.787-1.688-0.9-1.9
			c-0.467-0.762-1.002-0.822-1.6-0.926c-0.092-0.094-0.092-0.174-0.092-0.258c0-0.08,0-0.135,0.064-0.238h0.625
			c0.699,0,1.299,0.037,1.834,0.037c0.625,0,1.662-0.059,2.381-0.059h0.396c0.096,0.021,0.115,0.156,0.115,0.219
			c0,0.041,0,0.205-0.051,0.281c-0.484,0.041-1.5,0.018-1.5,0.665c0,0.144,0,0.397,0.092,0.569l2.478,5.924l2.106-4.922
			c0.232-0.549,0.252-1.039,0.252-1.293c0-0.555-0.395-0.799-1.436-0.926c-0.018-0.07-0.046-0.164-0.046-0.228
			c0-0.095,0.028-0.231,0.046-0.29h0.301c0.467,0,0.928,0.059,1.992,0.059c0.16,0,0.9-0.037,1.252-0.037h0.713
			c0.051,0.08,0.074,0.135,0.074,0.222C184.605,73.528,184.582,73.674,184.51,73.733"/>
		<path fill="#231F20" d="M156.644,92.03c-0.091,0-0.159-0.024-0.298-0.039c-0.209-0.61-0.488-1.178-0.744-1.479
			c-0.393-0.507-0.809-0.848-1.846-0.973c-0.237-0.01-0.787-0.01-0.973-0.01l-0.027,4.408c0,0.692,0,1.518,0.027,3.031
			c0.018,1.17,0.547,1.17,1.758,1.316c0.068,0.132,0.068,0.211,0.068,0.295c0,0.08,0,0.158-0.045,0.238h-0.439
			c-0.717,0-2.111-0.041-2.521-0.041c-0.307,0-1.832,0.066-2.572,0.066c-0.051-0.105-0.069-0.105-0.069-0.264
			c0-0.084,0.019-0.163,0.046-0.271c1.596-0.111,1.754-0.412,1.832-0.926c0.02-0.32,0.02-1.639,0.02-2.982v-3.66
			c0-0.447,0-0.916-0.07-1.211c-0.301,0-1.293,0-1.57,0.104c-0.814,0.299-1.372,0.982-1.992,2.202
			c-0.092,0.03-0.207,0.03-0.279,0.03c-0.096,0-0.16-0.03-0.229-0.104v-2.568c0-0.233,0.045-0.289,0.301-0.289
			c0.252,0,0.6,0.015,1.088,0.015c0.37,0,1.828,0.017,3.65,0.017c2.391,0,4.191-0.056,4.631-0.056c0.255,0,0.414,0,0.492,0.08
			c0.041,0.052,0.02,0.233,0.02,0.375v2.562C156.826,91.991,156.734,92.03,156.644,92.03"/>
		<path fill="#231F20" d="M162.314,90.946h-0.023c-0.209,0.377-0.58,1.242-0.713,1.604c-0.534,1.295-0.721,1.736-0.809,1.918h2.98
			C163.521,93.884,162.754,92.04,162.314,90.946 M168.629,98.872h-0.785c-0.508,0-1.088-0.075-1.691-0.075
			c-0.945,0-2.152,0.075-2.609,0.075c-0.045-0.053-0.076-0.146-0.076-0.26c0-0.069,0.031-0.162,0.055-0.231
			c0.973-0.044,1.365-0.206,1.365-0.599c0-0.16,0-0.488-0.305-1.299c-0.299-0.728-0.463-1.065-0.531-1.248
			c-0.051-0.074-0.068-0.103-0.279-0.103h-3.148c-0.205,0.237-0.461,0.944-0.74,1.903c-0.062,0.258-0.062,0.492-0.062,0.586
			c0,0.316,0.297,0.688,1.406,0.715c0.068,0.113,0.068,0.206,0.068,0.275c0,0.072,0,0.152-0.021,0.232h-0.279
			c-0.736,0-0.945-0.048-1.732-0.048c-0.512,0-1.74,0.048-2.152,0.048c-0.023-0.08-0.045-0.119-0.045-0.209
			c0-0.068,0-0.139,0.045-0.255c0.6-0.122,1.157-0.295,1.436-0.731c0.16-0.238,0.693-1.166,1.275-2.596
			c0.551-1.334,1.224-3.023,1.525-3.73c0.416-0.871,0.553-1.153,0.695-1.461c0.205-0.438,0.438-0.879,0.529-1.037
			c0.092-0.116,0.297-0.188,0.393-0.188c0.16,0,0.371,0.107,0.439,0.205c0.096,0.188,0.21,0.385,0.232,0.5
			c0.576,1.377,1.041,2.607,1.76,4.314c0.371,0.871,0.557,1.414,0.945,2.316c0.283,0.566,0.439,0.996,0.719,1.518
			c0.374,0.752,0.973,0.768,1.57,0.916c0.029,0.066,0.092,0.136,0.092,0.229C168.721,98.726,168.68,98.778,168.629,98.872z"/>
		<path fill="#231F20" d="M184.094,98.872l-4.053-0.053h-1.106c-0.046-0.08-0.073-0.207-0.073-0.252
			c0-0.127,0.027-0.149,0.092-0.258c0.209-0.023,0.744,0,0.996-0.09c0.416-0.188,0.58-0.589,0.58-1.191v-5.846c0,0,0-1.052,0-1.357
			h-0.023l-2.129,4.67c-0.234,0.507-0.508,1.062-0.74,1.621c-0.484,1.086-0.744,1.836-0.877,2.265
			c-0.074,0.187-0.234,0.187-0.324,0.187c-0.143,0-0.234-0.047-0.307-0.281c-0.275-0.598-0.461-0.992-0.549-1.25l-3.336-7.332
			h-0.068v1.877l0.068,4.684c0,1.424,0.736,2.092,1.873,2.092c0.047,0.084,0.097,0.211,0.097,0.248c0,0.057-0.028,0.16-0.073,0.24
			c-0.068,0-0.297,0.027-0.508,0.027c-0.137,0-0.881-0.075-1.941-0.075c-0.307,0-0.932,0.022-1.416,0.022h-0.672
			c-0.02-0.08-0.041-0.158-0.041-0.238c0-0.038,0.021-0.141,0.041-0.225c0.279-0.07,1.248-0.301,1.457-0.506
			c0.211-0.201,0.398-0.627,0.398-1.609v-5.139c-0.023-0.822-0.119-1.131-0.512-1.412c-0.16-0.127-0.787-0.195-1.32-0.267
			c-0.043-0.088-0.064-0.196-0.064-0.276c0-0.066,0.021-0.164,0.064-0.267c0.396,0,1.092,0.039,1.781,0.039h2.436
			c0.092,0.063,0.133,0.11,0.205,0.252l2.984,6.771l0.535-1.356c0.461-1.086,1.133-2.72,2.078-4.493
			c0.207-0.389,0.467-0.889,0.609-1.156l3.791-0.056c0.047,0.08,0.092,0.149,0.092,0.243c0,0.104-0.021,0.158-0.068,0.253
			c-0.42,0.073-1.133,0.073-1.484,0.649c-0.109,0.188-0.184,0.371-0.184,1.193v4.82c0,1.857,0.463,2.046,0.672,2.18
			c0.119,0.066,0.699,0.137,1.02,0.137c0.045,0.094,0.072,0.164,0.072,0.256C184.166,98.765,184.117,98.778,184.094,98.872"/>
		<path fill="#231F20" d="M156.416,107.72c-0.092,0-0.166-0.023-0.303-0.033c-0.205-0.617-0.484-1.18-0.74-1.482
			c-0.393-0.51-0.809-0.844-1.854-0.975c-0.229-0.008-0.786-0.008-0.974-0.008l-0.02,4.406c0,0.697,0,1.521,0.02,3.037
			c0.027,1.16,0.557,1.16,1.764,1.316c0.068,0.125,0.068,0.205,0.068,0.285c0,0.09,0,0.17-0.045,0.246h-0.443
			c-0.713,0-2.104-0.045-2.518-0.045c-0.303,0-1.834,0.064-2.574,0.064c-0.045-0.096-0.068-0.096-0.068-0.266
			c0-0.08,0.023-0.16,0.047-0.264c1.6-0.115,1.758-0.413,1.828-0.924c0.026-0.323,0.026-1.643,0.026-2.986v-3.656
			c0-0.453,0-0.916-0.073-1.215c-0.297,0-1.293,0-1.576,0.102c-0.809,0.305-1.361,0.988-1.983,2.201
			c-0.097,0.031-0.21,0.031-0.284,0.031c-0.091,0-0.154-0.031-0.229-0.102v-2.568c0-0.23,0.051-0.293,0.303-0.293
			s0.598,0.016,1.088,0.016c0.369,0,1.828,0.024,3.654,0.024c2.381,0,4.191-0.058,4.631-0.058c0.256,0,0.414,0,0.483,0.08
			c0.05,0.047,0.028,0.23,0.028,0.369v2.568C156.598,107.687,156.506,107.72,156.416,107.72"/>
		<path fill="#231F20" d="M168.84,105.095c-0.904,0.068-1.504,0.551-1.781,1.176l-3.793,8.457c0,0-0.188,0.133-0.303,0.133
			c-0.119,0-0.277-0.133-0.348-0.393c-0.09-0.298-0.557-1.482-1.571-3.785l-1.206-2.765c-0.439-1.022-0.785-1.692-0.904-1.901
			c-0.457-0.764-0.992-0.818-1.596-0.922c-0.096-0.093-0.096-0.173-0.096-0.254c0-0.084,0-0.139,0.072-0.248h0.627
			c0.695,0,1.297,0.04,1.824,0.04c0.629,0,1.668-0.058,2.389-0.058h0.393c0.092,0.018,0.115,0.158,0.115,0.218
			c0,0.048,0,0.209-0.047,0.276c-0.484,0.045-1.503,0.025-1.503,0.67c0,0.144,0,0.394,0.093,0.572l2.471,5.92l2.107-4.916
			c0.233-0.555,0.26-1.045,0.26-1.299c0-0.552-0.393-0.795-1.434-0.922c-0.027-0.07-0.051-0.164-0.051-0.234
			c0-0.094,0.023-0.228,0.051-0.285h0.297c0.461,0,0.932,0.058,1.992,0.058c0.16,0,0.904-0.04,1.246-0.04h0.723
			c0.041,0.081,0.065,0.141,0.065,0.227C168.933,104.886,168.908,105.034,168.84,105.095"/>
		<path fill="#231F20" d="M184.299,114.558l-4.025-0.045h-1.133c-0.041-0.076-0.041-0.209-0.041-0.25c0-0.132,0-0.156,0.062-0.26
			c0.229-0.021,0.746,0,1.016-0.094c0.396-0.182,0.557-0.588,0.557-1.188v-5.844c0,0,0.027-1.059,0.027-1.357h-0.05l-2.106,4.66
			c-0.252,0.516-0.508,1.069-0.759,1.623c-0.466,1.088-0.745,1.84-0.878,2.271c-0.055,0.188-0.209,0.188-0.328,0.188
			c-0.115,0-0.205-0.052-0.303-0.281c-0.25-0.604-0.438-0.996-0.529-1.25l-3.359-7.336h-0.068v1.871l0.068,4.688
			c0.027,1.424,0.74,2.098,1.896,2.098c0.051,0.079,0.074,0.211,0.074,0.242c0,0.062,0,0.16-0.047,0.238
			c-0.09,0-0.301,0.025-0.529,0.025c-0.143,0-0.863-0.066-1.924-0.066c-0.324,0-0.951,0.021-1.416,0.021h-0.668
			c-0.045-0.076-0.064-0.156-0.064-0.246c0-0.029,0.02-0.136,0.064-0.215c0.256-0.07,1.252-0.307,1.457-0.512
			c0.188-0.197,0.367-0.62,0.367-1.604l0.031-2.367l-0.031-2.771c-0.02-0.823-0.088-1.138-0.504-1.416
			c-0.164-0.13-0.785-0.194-1.297-0.269c-0.068-0.09-0.088-0.192-0.088-0.273c0-0.074,0.02-0.167,0.088-0.266
			c0.369,0,1.088,0.033,1.76,0.033h2.453c0.068,0.065,0.142,0.117,0.184,0.252l2.986,6.772l0.555-1.358
			c0.438-1.084,1.138-2.719,2.088-4.486c0.184-0.393,0.461-0.889,0.6-1.155l3.773-0.058c0.041,0.08,0.113,0.15,0.113,0.244
			c0,0.103-0.049,0.156-0.096,0.25c-0.393,0.066-1.109,0.066-1.453,0.646c-0.117,0.188-0.209,0.371-0.209,1.193v4.826
			c0,1.854,0.461,2.035,0.689,2.174c0.096,0.072,0.676,0.143,0.996,0.143c0.072,0.092,0.096,0.159,0.096,0.252
			C184.395,114.454,184.354,114.468,184.299,114.558"/>
		<path fill="#231F20" d="M196.486,130.493c-2.902,0.416-12.133,1.621-20.742,1.621c-12.318,0-27.514-1.934-27.66-1.942
			l-1.334-0.188c0,0,0,3.09,0,4.047c-1.164,0.432-3.725,1.227-6.713,1.227c-2.924,0-5.318-0.785-6.434-1.21c0-0.946,0-4.063,0-4.063
			l-1.33,0.188c-0.146,0.009-15.363,1.942-27.619,1.942c-8.636,0-17.881-1.205-20.783-1.621v-59.76
			c1.088-0.215,4.314-0.902,5.887-1.231v54.142c0.58,1.237,3.057,4.121,14.377,4.121l14.324-1.888l10.949-1.563
			c7.307,0,9.602,3.889,9.701,4.051l0.338-0.188h1.691l0.33,0.174c0.086-0.158,2.348-4.037,9.6-4.037l10.936,1.553l14.432,1.898
			c11.469,0,14.324-3.021,14.613-3.357l0.22-55.184c1.503,0.412,4.257,1.18,5.218,1.455V130.493 M92.125,63.411
			c1.893,0.951,5.297,1.955,12.01,1.955l14.43-1.907l10.936-1.558c7.185,0,9.477,3.822,9.602,4.031v59.078
			c-1.75-1.461-4.689-3.057-9.693-3.057l-11.461,1.609l-13.812,1.84c-10.117,0-12.225-2.442-12.242-2.467
			C91.893,122.937,92.094,67.45,92.125,63.411z M141.469,65.933c0.086-0.158,2.348-4.031,9.6-4.031l10.936,1.547l14.432,1.896
			c6.986,0,10.551-1.1,12.52-2.045v60.236c-0.15-0.295-2.988,1.867-12.52,1.867l-13.93-1.854l-11.438-1.596
			c-4.967,0-7.873,1.582-9.6,3.033V65.933z M191.281,66.757l0.032-8.498l-2.062,2.182c-0.018,0.024-2.541,2.541-12.816,2.541
			l-13.93-1.848l-11.438-1.598c-6.283,0-9.418,2.57-10.789,4.119c-1.375-1.549-4.537-4.119-10.779-4.119l-11.451,1.605
			l-13.914,1.867c-10.117,0-12.225-2.443-12.242-2.465l-2.099-2.57l-0.036,3.276v5.831l-8.248,1.736v63.726l0.996,0.146
			c0.113,0.027,11.615,1.812,22.148,1.812c10.379,0,22.703-1.372,26.591-1.83c0,1.015,0,2.892,0,2.892l0.646,0.334
			c0.15,0.069,3.568,1.754,8.146,1.754c4.606,0,8.238-1.672,8.391-1.74l0.686-0.325c0,0,0-1.899,0-2.914
			c3.889,0.458,16.199,1.83,26.631,1.83c10.488,0,21.99-1.784,22.109-1.812l0.996-0.146V68.872L191.281,66.757z"/>
	</g>
</g>
<g>
	<path fill="#F58025" d="M324.723,305.657c6.398-0.054,10.554-1.189,12.469-3.404c1.914-2.215,2.871-5.537,2.871-9.967V212.47
		c0-4.562-1.095-7.562-3.281-9.002c-2.188-1.439-6.07-2.376-11.648-2.811v-4.266h42.328l33.059,77.766h1.395l32.868-77.766h42.355
		v4.266c-5.688,0.436-9.571,1.483-11.648,3.142c-2.079,1.66-3.117,5.726-3.117,12.198v74.32c0,6.181,1.038,10.227,3.117,12.141
		c2.078,1.915,5.96,2.981,11.648,3.199v4.266h-55.781v-4.266c4.976-0.164,8.722-0.997,11.238-2.502
		c2.515-1.504,3.773-4.799,3.773-9.885v-82.113h-1.23l-41.18,98.766h-4.507l-41.595-96.797h-0.738v75.961
		c0,5.606,1.038,9.7,3.117,12.283c2.078,2.584,6.671,4.013,13.781,4.287v4.266h-39.293V305.657z"/>
	<path fill="#F58025" d="M594.789,305.657c4.21-0.273,7.246-0.874,9.105-1.805c3.281-1.694,4.922-4.785,4.922-9.27v-82.852
		c0-4.319-1.559-7.328-4.676-9.023c-1.805-0.984-4.922-1.668-9.352-2.051v-4.266h51.352c20.726,0,36.531,5.524,47.414,16.57
		c9.897,10.062,14.848,23.571,14.848,40.523c0,15.204-4.977,28.083-14.93,38.637c-11.211,11.867-26.414,17.801-45.609,17.801
		h-53.074V305.657z M637.896,301.966c1.12,1.531,3.513,2.297,7.178,2.297c9.953,0,18.129-3.514,24.527-10.541
		c6.398-7.026,9.598-20.521,9.598-40.482c0-11.866-1.723-22.066-5.168-30.598c-5.578-13.727-14.985-20.59-28.219-20.59
		c-4.376,0-7.219,0.931-8.531,2.789c-0.875,1.203-1.312,3.527-1.312,6.973v82.688C636.133,297.946,636.775,300.436,637.896,301.966z
		"/>
	<path fill="#F58025" d="M716.523,309.923v-4.266c4.812-0.164,8.23-0.82,10.254-1.969c3.117-1.75,4.676-5.031,4.676-9.844V212.47
		c0-4.888-1.613-8.174-4.84-9.857c-1.859-1.031-5.223-1.684-10.09-1.955v-4.266h96.797v33.879h-4.102
		c-2.133-10.828-5.756-18.238-10.869-22.23c-5.114-3.991-14.425-5.988-27.932-5.988c-5.141,0-8.408,0.533-9.803,1.6
		s-2.092,3.187-2.092,6.357v38.883c9.569,0.11,16.05-1.627,19.441-5.209c3.391-3.581,5.988-10.131,7.793-19.646h4.266v56.766h-4.266
		c-1.203-9.569-3.65-16.311-7.342-20.221c-3.691-3.909-10.323-5.865-19.893-5.865v40.688c0,3.556,0.915,5.976,2.748,7.26
		c1.832,1.285,5.591,1.928,11.279,1.928c10.718,0,19.469-2.078,26.25-6.234c6.78-4.155,12.797-11.948,18.047-23.379h4.676
		l-6.809,34.945H716.523z"/>
	<path fill="#F58025" d="M828.906,305.657c4.594-0.164,7.875-0.766,9.844-1.806c3.335-1.751,5.004-5.09,5.004-10.017V212.47
		c0-4.888-1.587-8.174-4.758-9.857c-1.859-1.031-5.223-1.684-10.09-1.955v-4.266h58.734v4.266c-6.837,0.218-11.39,1.17-13.658,2.857
		c-2.27,1.687-3.404,5.847-3.404,12.482v79.397c0,3.722,0.971,6.186,2.912,7.391c1.94,1.204,5.729,1.806,11.361,1.806
		c10.117,0,18.607-2.228,25.471-6.686c6.862-4.457,12.783-13.138,17.76-26.045h4.922l-6.809,38.062h-97.289V305.657z"/>
	<path d="M940.633,305.657c6.234-0.164,10.254-1.354,12.059-3.568s2.707-5.482,2.707-9.803v-79.57
		c-5.141-5.742-8.313-9.118-9.516-10.131c-1.203-1.012-2.844-1.653-4.922-1.928v-4.266h35.602l57.75,70.188h0.82v-49.352
		c0-5.688-1.034-9.748-3.101-12.182c-2.067-2.433-6.202-3.896-12.403-4.389v-4.266h36.094v4.266
		c-5.25,0.87-8.765,2.039-10.541,3.507c-1.777,1.468-2.666,4.755-2.666,9.864v99.012h-4.676l-73.91-89.824h-1.148v65.871
		c0,5.167,0.71,8.821,2.133,10.964c2.242,3.464,6.836,5.332,13.781,5.606v4.266h-38.062V305.657z"/>
	<path d="M1061.957,309.923v-4.266c4.812-0.164,8.23-0.82,10.254-1.969c3.117-1.75,4.676-5.031,4.676-9.844V212.47
		c0-4.888-1.613-8.174-4.84-9.857c-1.859-1.031-5.223-1.684-10.09-1.955v-4.266h96.797v33.879h-4.102
		c-2.133-10.828-5.756-18.238-10.869-22.23c-5.114-3.991-14.425-5.988-27.932-5.988c-5.141,0-8.408,0.533-9.803,1.6
		s-2.092,3.187-2.092,6.357v38.883c9.569,0.11,16.05-1.627,19.441-5.209c3.391-3.581,5.988-10.131,7.793-19.646h4.266v56.766h-4.266
		c-1.203-9.569-3.65-16.311-7.342-20.221c-3.691-3.909-10.323-5.865-19.893-5.865v40.688c0,3.556,0.915,5.976,2.748,7.26
		c1.832,1.285,5.591,1.928,11.279,1.928c10.718,0,19.469-2.078,26.25-6.234c6.78-4.155,12.797-11.948,18.047-23.379h4.676
		l-6.809,34.945H1061.957z"/>
	<path d="M1175.734,196.392h101.145l0.164,33.879h-4.84c-1.587-12.12-6.125-20.319-13.617-24.598
		c-4.212-2.358-10.5-3.646-18.867-3.867v88.5c0,6.185,1.079,10.289,3.24,12.313c2.16,2.025,6.657,3.038,13.494,3.038v4.266h-59.883
		v-4.266c6.562,0,10.923-1.025,13.084-3.079c2.16-2.052,3.24-6.143,3.24-12.272v-88.5c-8.203,0.221-14.492,1.509-18.867,3.867
		c-8.039,4.387-12.579,12.587-13.617,24.598h-4.84L1175.734,196.392z"/>
</g>
<g>
	<path fill="#F58025" d="M532.729,308.048c-5.945-0.175-11.566-1.588-16.705-4.202c-5.632-2.845-10.438-6.992-14.281-12.328
		c-6.797-9.443-9.857-21.771-8.618-34.722c1.132-12.019,5.975-23.913,13.635-33.494c8.047-10.059,18.731-17.039,30.087-19.656
		c9.305-2.148,18.53-1.278,26.675,2.523c2.715,1.253,5.32,2.866,7.741,4.795c9.188,7.31,14.973,18.524,16.296,31.584
		c1.207,11.795-1.422,24.347-7.405,35.344c-6.602,11.29-9.713,14.356-18.431,20.926
		C552.699,305.162,542.684,308.343,532.729,308.048z M583.035,277.928c3.874-7.563,7.613-21.228,7.352-33.746
		c-1.364-13.46-6.752-25.322-16.254-32.881c-2.513-1.999-5.215-3.675-8.032-4.979l0,0l0,0c-0.003,0-0.009-0.002-0.012-0.002
		c0,0-0.003,0-0.004,0l-15.989-7.752c0,0,0,0-0.002,0c-11.878-5.767-26.168-5.379-39.209,1.073
		c-11.717,5.783-21.533,15.906-27.645,28.506c-6.11,12.611-7.982,26.597-5.274,39.371c2.996,14.181,11.532,25.64,23.424,31.445
		c0,0,0,0,0.002,0l15.918,7.714c0.002,0.003,0.002,0,0.005,0.003c5.33,2.705,11.156,4.17,17.315,4.354
		c0.448,0.013,0.897,0.021,1.347,0.021c9.632,0,18.987-4.362,27.509-10.351C572.842,294.129,578.753,286.288,583.035,277.928z"/>
	<path fill="#F58025" d="M574.663,229.544c-5.08-9.375-13.791-15.663-23.898-17.248c-0.653-0.106-1.311-0.199-1.978-0.259
		c-10.287-1.019-21.097,2.723-29.866,10.28c-14.996,12.895-23.918,38.383-12.893,58.721c1.825,3.371,4.11,6.319,6.765,8.787
		c0.076,0.197,0.236,0.341,0.435,0.406c5.179,4.744,11.637,7.622,18.694,8.313c1.119,0.11,2.26,0.165,3.389,0.165
		c9.25,0,18.647-3.707,26.462-10.449C576.783,275.361,585.711,249.868,574.663,229.544z M507.336,280.329
		c-10.669-19.677-1.995-44.374,12.554-56.883c7.549-6.507,16.604-10.091,25.507-10.091c1.083,0,2.175,0.057,3.252,0.161
		c0.559,0.051,1.104,0.13,1.652,0.217c8.385,7.907,12.456,20.405,10.888,33.497c-1.475,12.271-7.646,23.897-16.929,31.882
		c-8.986,7.737-20.035,11.27-30.356,9.726C511.317,286.454,509.106,283.599,507.336,280.329z"/>
</g>
</svg>
